<mxfile host="Electron" modified="2023-09-30T04:15:06.776Z" agent="Mozilla/5.0 (Windows NT 10.0; Win64; x64) AppleWebKit/537.36 (KHTML, like Gecko) draw.io/21.7.5 Chrome/114.0.5735.289 Electron/25.8.1 Safari/537.36" etag="KXL5KxhJMKS6ruu95O8R" version="21.7.5" type="device">
  <diagram name="Page-1" id="t8EmRc7t5Gpv0niYXhmj">
    <mxGraphModel dx="1434" dy="844" grid="1" gridSize="10" guides="1" tooltips="1" connect="1" arrows="1" fold="1" page="1" pageScale="1" pageWidth="1500" pageHeight="1500" math="0" shadow="0">
      <root>
        <mxCell id="0" />
        <mxCell id="1" parent="0" />
        <mxCell id="BnkQIWlG_Oit-ImiSqjN-1" value="" style="shape=actor;whiteSpace=wrap;html=1;" vertex="1" parent="1">
          <mxGeometry x="410" y="10" width="70" height="100" as="geometry" />
        </mxCell>
        <mxCell id="BnkQIWlG_Oit-ImiSqjN-3" style="edgeStyle=orthogonalEdgeStyle;rounded=0;orthogonalLoop=1;jettySize=auto;html=1;entryX=0.5;entryY=1;entryDx=0;entryDy=0;" edge="1" parent="1" source="BnkQIWlG_Oit-ImiSqjN-8" target="BnkQIWlG_Oit-ImiSqjN-1">
          <mxGeometry relative="1" as="geometry" />
        </mxCell>
        <UserObject label="Plaid Controller" tooltip="Component&#xa;" id="BnkQIWlG_Oit-ImiSqjN-2">
          <mxCell style="rounded=0;whiteSpace=wrap;html=1;" vertex="1" parent="1">
            <mxGeometry x="110" y="220" width="120" height="60" as="geometry" />
          </mxCell>
        </UserObject>
        <mxCell id="BnkQIWlG_Oit-ImiSqjN-7" style="edgeStyle=orthogonalEdgeStyle;rounded=0;orthogonalLoop=1;jettySize=auto;html=1;entryX=0.5;entryY=1;entryDx=0;entryDy=0;" edge="1" parent="1" source="BnkQIWlG_Oit-ImiSqjN-4" target="BnkQIWlG_Oit-ImiSqjN-2">
          <mxGeometry relative="1" as="geometry" />
        </mxCell>
        <UserObject label="Create Transactions" tooltip="Function" id="BnkQIWlG_Oit-ImiSqjN-4">
          <mxCell style="shape=process;whiteSpace=wrap;html=1;backgroundOutline=1;" vertex="1" parent="1">
            <mxGeometry x="110" y="310" width="120" height="60" as="geometry" />
          </mxCell>
        </UserObject>
        <mxCell id="BnkQIWlG_Oit-ImiSqjN-6" style="edgeStyle=orthogonalEdgeStyle;rounded=0;orthogonalLoop=1;jettySize=auto;html=1;entryX=0.5;entryY=1;entryDx=0;entryDy=0;" edge="1" parent="1" source="BnkQIWlG_Oit-ImiSqjN-15" target="BnkQIWlG_Oit-ImiSqjN-4">
          <mxGeometry relative="1" as="geometry" />
        </mxCell>
        <mxCell id="BnkQIWlG_Oit-ImiSqjN-26" style="edgeStyle=orthogonalEdgeStyle;rounded=0;orthogonalLoop=1;jettySize=auto;html=1;jumpStyle=arc;startArrow=block;startFill=1;endArrow=none;endFill=0;fillColor=#ffe6cc;strokeColor=#d79b00;" edge="1" parent="1" source="BnkQIWlG_Oit-ImiSqjN-5" target="BnkQIWlG_Oit-ImiSqjN-17">
          <mxGeometry relative="1" as="geometry" />
        </mxCell>
        <UserObject label="Get Transactions" tooltip="Function&#xa;" id="BnkQIWlG_Oit-ImiSqjN-5">
          <mxCell style="shape=process;whiteSpace=wrap;html=1;backgroundOutline=1;" vertex="1" parent="1">
            <mxGeometry x="20" y="510" width="120" height="60" as="geometry" />
          </mxCell>
        </UserObject>
        <mxCell id="BnkQIWlG_Oit-ImiSqjN-9" value="" style="edgeStyle=orthogonalEdgeStyle;rounded=0;orthogonalLoop=1;jettySize=auto;html=1;entryX=0.5;entryY=1;entryDx=0;entryDy=0;" edge="1" parent="1" source="BnkQIWlG_Oit-ImiSqjN-2" target="BnkQIWlG_Oit-ImiSqjN-8">
          <mxGeometry relative="1" as="geometry">
            <mxPoint x="170" y="220" as="sourcePoint" />
            <mxPoint x="255" y="110" as="targetPoint" />
          </mxGeometry>
        </mxCell>
        <mxCell id="BnkQIWlG_Oit-ImiSqjN-8" value="Refresh Recent Transactions" style="shape=step;perimeter=stepPerimeter;whiteSpace=wrap;html=1;fixedSize=1;" vertex="1" parent="1">
          <mxGeometry x="290" y="150" width="130" height="80" as="geometry" />
        </mxCell>
        <mxCell id="BnkQIWlG_Oit-ImiSqjN-28" style="edgeStyle=orthogonalEdgeStyle;rounded=0;orthogonalLoop=1;jettySize=auto;html=1;entryX=1;entryY=0.5;entryDx=0;entryDy=0;fillColor=#ffe6cc;strokeColor=#d79b00;" edge="1" parent="1" source="BnkQIWlG_Oit-ImiSqjN-10" target="BnkQIWlG_Oit-ImiSqjN-17">
          <mxGeometry relative="1" as="geometry" />
        </mxCell>
        <UserObject label="Get Profile" tooltip="Function" id="BnkQIWlG_Oit-ImiSqjN-10">
          <mxCell style="shape=process;whiteSpace=wrap;html=1;backgroundOutline=1;" vertex="1" parent="1">
            <mxGeometry x="440" y="240" width="120" height="60" as="geometry" />
          </mxCell>
        </UserObject>
        <mxCell id="BnkQIWlG_Oit-ImiSqjN-13" style="edgeStyle=orthogonalEdgeStyle;rounded=0;orthogonalLoop=1;jettySize=auto;html=1;entryX=1;entryY=0.5;entryDx=0;entryDy=0;" edge="1" parent="1" source="BnkQIWlG_Oit-ImiSqjN-17" target="BnkQIWlG_Oit-ImiSqjN-4">
          <mxGeometry relative="1" as="geometry" />
        </mxCell>
        <UserObject label="Get Token" tooltip="Function" id="BnkQIWlG_Oit-ImiSqjN-12">
          <mxCell style="shape=process;whiteSpace=wrap;html=1;backgroundOutline=1;" vertex="1" parent="1">
            <mxGeometry x="440" y="410" width="120" height="60" as="geometry" />
          </mxCell>
        </UserObject>
        <mxCell id="BnkQIWlG_Oit-ImiSqjN-16" value="" style="edgeStyle=orthogonalEdgeStyle;rounded=0;orthogonalLoop=1;jettySize=auto;html=1;entryX=0.5;entryY=1;entryDx=0;entryDy=0;" edge="1" parent="1" source="BnkQIWlG_Oit-ImiSqjN-5" target="BnkQIWlG_Oit-ImiSqjN-15">
          <mxGeometry relative="1" as="geometry">
            <mxPoint x="170" y="480" as="sourcePoint" />
            <mxPoint x="170" y="390" as="targetPoint" />
          </mxGeometry>
        </mxCell>
        <mxCell id="BnkQIWlG_Oit-ImiSqjN-25" style="edgeStyle=orthogonalEdgeStyle;rounded=0;orthogonalLoop=1;jettySize=auto;html=1;entryX=0.5;entryY=0;entryDx=0;entryDy=0;jumpStyle=arc;jumpSize=12;" edge="1" parent="1" source="BnkQIWlG_Oit-ImiSqjN-15" target="BnkQIWlG_Oit-ImiSqjN-19">
          <mxGeometry relative="1" as="geometry" />
        </mxCell>
        <UserObject label="Transactions History Controller" tooltip="Component&#xa;" id="BnkQIWlG_Oit-ImiSqjN-15">
          <mxCell style="rounded=0;whiteSpace=wrap;html=1;" vertex="1" parent="1">
            <mxGeometry x="110" y="400" width="120" height="60" as="geometry" />
          </mxCell>
        </UserObject>
        <mxCell id="BnkQIWlG_Oit-ImiSqjN-18" value="" style="edgeStyle=orthogonalEdgeStyle;rounded=0;orthogonalLoop=1;jettySize=auto;html=1;entryX=1;entryY=0.5;entryDx=0;entryDy=0;" edge="1" parent="1" source="BnkQIWlG_Oit-ImiSqjN-12" target="BnkQIWlG_Oit-ImiSqjN-17">
          <mxGeometry relative="1" as="geometry">
            <mxPoint x="400" y="470" as="sourcePoint" />
            <mxPoint x="230" y="340" as="targetPoint" />
          </mxGeometry>
        </mxCell>
        <UserObject label="User Management Controller" tooltip="Component&#xa;" id="BnkQIWlG_Oit-ImiSqjN-17">
          <mxCell style="rounded=0;whiteSpace=wrap;html=1;" vertex="1" parent="1">
            <mxGeometry x="270" y="310" width="120" height="60" as="geometry" />
          </mxCell>
        </UserObject>
        <mxCell id="BnkQIWlG_Oit-ImiSqjN-22" style="edgeStyle=orthogonalEdgeStyle;rounded=0;orthogonalLoop=1;jettySize=auto;html=1;entryX=0;entryY=0.5;entryDx=0;entryDy=0;" edge="1" parent="1" source="BnkQIWlG_Oit-ImiSqjN-19" target="BnkQIWlG_Oit-ImiSqjN-24">
          <mxGeometry relative="1" as="geometry" />
        </mxCell>
        <UserObject label="Store Transactions" tooltip="Function" id="BnkQIWlG_Oit-ImiSqjN-19">
          <mxCell style="shape=process;whiteSpace=wrap;html=1;backgroundOutline=1;" vertex="1" parent="1">
            <mxGeometry x="200" y="570" width="120" height="60" as="geometry" />
          </mxCell>
        </UserObject>
        <UserObject label="Transactions" tooltip="Database" id="BnkQIWlG_Oit-ImiSqjN-21">
          <mxCell style="shape=cylinder3;whiteSpace=wrap;html=1;boundedLbl=1;backgroundOutline=1;size=15;" vertex="1" parent="1">
            <mxGeometry x="410" y="630" width="130" height="110" as="geometry" />
          </mxCell>
        </UserObject>
        <UserObject label="Transactions Library" tooltip="Abstraction" id="BnkQIWlG_Oit-ImiSqjN-24">
          <mxCell style="whiteSpace=wrap;html=1;aspect=fixed;" vertex="1" parent="1">
            <mxGeometry x="315" y="650" width="80" height="80" as="geometry" />
          </mxCell>
        </UserObject>
      </root>
    </mxGraphModel>
  </diagram>
</mxfile>
